<?xml version="1.0" standalone="no"?>
<!DOCTYPE svg PUBLIC "-//W3C//DTD SVG 20010904//EN"
 "http://www.w3.org/TR/2001/REC-SVG-20010904/DTD/svg10.dtd">
<svg version="1.0" xmlns="http://www.w3.org/2000/svg"
 width="200.000000pt" height="200.000000pt" viewBox="0 0 200.000000 200.000000"
 preserveAspectRatio="xMidYMid meet">

<g transform="translate(0.000000,200.000000) scale(0.100000,-0.100000)"
fill="#000000" stroke="none">
<path d="M0 1000 l0 -1000 1000 0 1000 0 0 1000 0 1000 -1000 0 -1000 0 0
-1000z m1157 463 c74 -42 141 -83 149 -90 19 -20 20 -351 2 -375 -20 -24 -281
-168 -306 -168 -23 0 -227 111 -289 157 l-33 24 0 174 0 174 28 21 c59 43 268
158 291 159 13 1 84 -34 158 -76z m-737 -723 c0 -5 -7 -10 -15 -10 -10 0 -15
-15 -17 -57 -4 -81 -28 -85 -28 -4 0 48 -3 61 -15 61 -8 0 -15 5 -15 10 0 6
20 10 45 10 25 0 45 -4 45 -10z m100 0 c0 -5 -13 -10 -30 -10 -23 0 -30 -4
-30 -20 0 -13 7 -20 20 -20 11 0 20 -4 20 -10 0 -5 -9 -10 -20 -10 -13 0 -20
-7 -20 -20 0 -16 7 -20 30 -20 17 0 30 -4 30 -10 0 -5 -18 -10 -40 -10 l-40 0
0 70 0 70 40 0 c22 0 40 -4 40 -10z m100 -5 c6 -8 8 -20 4 -26 -5 -9 -11 -7
-20 6 -21 29 -44 11 -44 -35 0 -47 23 -64 45 -34 16 23 34 10 19 -14 -14 -21
-50 -27 -70 -12 -18 16 -20 116 -1 123 24 10 55 7 67 -8z m52 -12 c2 -20 9
-28 23 -28 14 0 21 8 23 28 7 55 22 25 22 -43 0 -40 -4 -70 -10 -70 -5 0 -10
14 -10 30 0 25 -4 30 -25 30 -21 0 -25 -5 -25 -30 0 -16 -4 -30 -10 -30 -6 0
-10 30 -10 70 0 68 15 98 22 43z m118 -28 c14 -59 24 -63 33 -15 9 41 23 38
34 -7 l10 -38 18 58 c10 31 23 57 28 57 5 0 6 -7 3 -15 -3 -9 -13 -40 -22 -70
-15 -54 -30 -69 -39 -40 -16 49 -17 50 -27 17 -13 -46 -27 -36 -49 33 -21 68
-22 75 -11 75 5 0 15 -25 22 -55z m221 -10 c12 -38 15 -63 9 -69 -7 -7 -10 -4
-10 7 0 12 -8 17 -30 17 -22 0 -30 -5 -30 -17 0 -11 -3 -14 -10 -7 -7 7 -5 26
6 60 9 27 18 55 20 62 8 27 27 5 45 -53z m119 55 c0 -5 -7 -10 -15 -10 -11 0
-15 -13 -15 -54 0 -30 -4 -58 -10 -61 -6 -4 -10 17 -10 54 0 54 -2 61 -20 61
-11 0 -20 5 -20 10 0 6 20 10 45 10 25 0 45 -4 45 -10z m95 -6 c19 -20 12 -32
-10 -14 -26 21 -45 4 -45 -40 0 -46 24 -65 45 -36 8 10 16 13 19 7 8 -12 -20
-41 -39 -41 -25 0 -45 31 -45 70 0 60 40 89 75 54z m55 -14 c0 -25 4 -30 25
-30 21 0 25 5 25 30 0 17 5 30 10 30 6 0 10 -28 10 -64 0 -36 -4 -68 -10 -71
-6 -4 -10 8 -10 29 0 32 -3 36 -25 36 -21 0 -25 -5 -25 -29 0 -17 -4 -33 -10
-36 -6 -4 -10 20 -10 64 0 41 4 71 10 71 6 0 10 -13 10 -30z m180 20 c0 -5
-13 -10 -30 -10 -23 0 -30 -4 -30 -20 0 -12 7 -20 18 -21 16 -1 16 -2 0 -6
-11 -3 -18 -14 -18 -29 0 -20 5 -24 30 -24 17 0 30 -4 30 -10 0 -5 -18 -10
-40 -10 l-40 0 0 70 0 70 40 0 c22 0 40 -4 40 -10z m100 -5 c13 -15 5 -55 -11
-55 -5 0 -3 -13 6 -29 8 -17 11 -32 6 -35 -5 -3 -14 8 -21 24 -16 39 -40 39
-40 0 0 -16 -4 -30 -10 -30 -6 0 -10 30 -10 70 l0 70 34 0 c18 0 39 -7 46 -15z
m100 5 c0 -5 -11 -10 -25 -10 -34 0 -31 -21 5 -42 18 -10 30 -25 30 -37 0 -25
-33 -44 -60 -36 -31 10 -23 22 10 17 23 -3 30 0 30 12 0 8 -13 22 -30 31 -31
16 -42 58 -17 68 22 9 57 7 57 -3z"/>
<path d="M970 708 c0 -9 -3 -23 -6 -32 -4 -12 0 -16 16 -16 18 0 20 4 15 23
-10 30 -25 46 -25 25z"/>
<path d="M1500 711 c0 -24 13 -33 35 -25 23 9 14 38 -13 42 -16 3 -22 -2 -22
-17z"/>
</g>
</svg>
